Hanif_Medium_7_5_grf.mot
version=1
nRows=37
nColumns=19
inDegrees=yes
endheader
time	right_ground_force_vx	right_ground_force_vy	right_ground_force_vz	right_ground_force_px	right_ground_force_py	right_ground_force_pz	right_ground_torque_x	right_ground_torque_y	right_ground_torque_z	left_ground_force_vx	left_ground_force_vy	left_ground_force_vz	left_ground_force_px	left_ground_force_py	left_ground_force_pz	left_ground_torque_x	left_ground_torque_y	left_ground_torque_z
6.225000	-3.788370	349.038000	39.032900	0.194771	0.000000	-1.444150	-21.624200	3.259400	-1.457100	0.933434	331.394000	-39.477200	0.215357	0.000000	-0.976868	24.462800	-5.344680	5.790050
6.230000	-3.276880	349.780000	38.803500	0.194789	0.000000	-1.445130	-21.321600	3.310150	-1.455870	1.909030	329.289000	-39.201100	0.215645	0.000000	-0.976718	24.240700	-5.389730	5.849770
6.235000	-3.103970	349.244000	38.764000	0.193905	0.000000	-1.444480	-21.513700	3.405890	-1.755470	2.773420	328.356000	-38.569900	0.215371	0.000000	-0.976371	24.042000	-5.488690	5.737490
6.240000	-2.571840	351.276000	38.708600	0.193723	0.000000	-1.443780	-21.881200	3.554020	-1.822460	2.221400	328.958000	-38.335800	0.215134	0.000000	-0.976434	24.117000	-5.481240	5.665900
6.245000	-2.325190	352.310000	37.952700	0.193449	0.000000	-1.444900	-21.550300	3.554730	-1.936530	1.867350	327.651000	-37.354900	0.215149	0.000000	-0.977040	24.225700	-5.481590	5.637210
6.250000	-1.967350	351.121000	37.417100	0.192687	0.000000	-1.443780	-21.864600	3.578420	-2.202370	1.460170	327.234000	-36.660800	0.215754	0.000000	-0.976892	24.153300	-5.500720	5.824250
6.255000	-1.999120	349.588000	36.908700	0.192732	0.000000	-1.445030	-21.333400	3.561600	-2.180250	0.765585	326.405000	-35.366900	0.215277	0.000000	-0.977312	24.241800	-5.464360	5.630940
6.260000	-1.628570	349.214000	36.387600	0.192348	0.000000	-1.444720	-21.414200	3.539370	-2.321880	0.886447	327.571000	-34.955700	0.215800	0.000000	-0.976437	24.039800	-5.474140	5.811830
6.265000	-1.259100	348.710000	36.072800	0.191735	0.000000	-1.445180	-21.222100	3.563400	-2.536480	1.042260	326.895000	-34.333100	0.215969	0.000000	-0.977007	24.173800	-5.424540	5.839300
6.270000	-1.721950	347.064000	35.553800	0.191816	0.000000	-1.445130	-21.140500	3.449340	-2.506030	1.364930	328.093000	-34.406100	0.215290	0.000000	-0.977122	24.293900	-5.562080	5.644460
6.275000	-1.796620	347.757000	34.727900	0.191716	0.000000	-1.444920	-21.258400	3.324090	-2.566620	1.748210	326.481000	-34.592400	0.215185	0.000000	-0.977485	24.285900	-5.587110	5.591500
6.280000	-2.102880	347.094000	34.282000	0.191601	0.000000	-1.445070	-21.165800	3.301180	-2.605050	2.329710	325.486000	-34.484400	0.215126	0.000000	-0.976523	23.888000	-5.597740	5.553490
6.285000	-1.528330	346.264000	34.400900	0.191013	0.000000	-1.445000	-21.134900	3.314020	-2.803950	2.616080	324.906000	-34.511700	0.214681	0.000000	-0.976787	23.925900	-5.616000	5.399930
6.290000	-1.340450	346.992000	33.952100	0.191188	0.000000	-1.444890	-21.218300	3.336960	-2.752310	2.870920	323.454000	-34.156000	0.214990	0.000000	-0.977123	23.923900	-5.490930	5.460030
6.295000	-1.250200	346.687000	33.713600	0.190890	0.000000	-1.444830	-21.218500	3.312650	-2.858770	2.796670	321.513000	-33.950500	0.214539	0.000000	-0.977464	23.890400	-5.526900	5.288180
6.300000	-0.774727	346.188000	33.033200	0.190271	0.000000	-1.445360	-20.998100	3.415890	-3.068260	2.452380	317.422000	-32.961600	0.214281	0.000000	-0.977393	23.569200	-5.488580	5.132990
6.305000	-0.467847	345.125000	32.934700	0.189904	0.000000	-1.445680	-20.823300	3.494130	-3.179980	2.319410	316.133000	-32.101700	0.214909	0.000000	-0.977595	23.539900	-5.424290	5.295210
6.310000	0.044338	343.203000	32.504600	0.189149	0.000000	-1.445270	-20.843700	3.474700	-3.428730	2.050530	314.217000	-31.495800	0.214415	0.000000	-0.977571	23.394200	-5.432150	5.104260
6.315000	0.339753	343.075000	31.985800	0.189474	0.000000	-1.444870	-20.967800	3.431080	-3.324590	1.614000	313.908000	-30.940400	0.215205	0.000000	-0.978149	23.560800	-5.297130	5.329650
6.320000	0.490034	338.413000	31.528700	0.189550	0.000000	-1.445150	-20.589000	3.374460	-3.255370	0.873206	311.301000	-30.233500	0.215834	0.000000	-0.978240	23.406600	-5.238710	5.477900
6.325000	0.161497	336.838000	30.824000	0.189161	0.000000	-1.445380	-20.417600	3.344360	-3.376320	0.823596	310.186000	-29.345500	0.214838	0.000000	-0.976849	22.892200	-5.221190	5.131970
6.330000	0.035150	335.860000	30.345500	0.188769	0.000000	-1.445760	-20.233400	3.294650	-3.505310	0.672774	309.105000	-28.899600	0.214820	0.000000	-0.978063	23.190200	-5.213500	5.103600
6.335000	0.051581	334.419000	29.923200	0.187430	0.000000	-1.444940	-20.419500	3.238230	-3.947950	0.545071	307.969000	-28.117700	0.215369	0.000000	-0.978187	23.145500	-5.172930	5.241210
6.340000	-0.631832	333.767000	29.219400	0.188148	0.000000	-1.445600	-20.166100	3.102890	-3.711170	0.151012	309.639000	-27.783400	0.214927	0.000000	-0.977782	23.152900	-5.136120	5.118910
6.345000	-0.715575	334.489000	29.020600	0.188083	0.000000	-1.445510	-20.238200	2.993620	-3.752730	-0.048736	308.119000	-26.953600	0.215592	0.000000	-0.978250	23.186900	-5.052260	5.283350
6.350000	-0.653940	333.128000	28.047500	0.187680	0.000000	-1.445220	-20.252400	3.025550	-3.875030	-0.248677	307.183000	-27.462100	0.215532	0.000000	-0.978261	23.123200	-5.086980	5.265730
6.355000	-0.784654	331.538000	27.710000	0.187612	0.000000	-1.445670	-20.007500	2.930180	-3.887090	-0.001681	308.472000	-27.514900	0.215321	0.000000	-0.978638	23.332200	-5.094870	5.218130
6.360000	-0.680403	331.523000	27.215600	0.187512	0.000000	-1.445340	-20.115600	2.942740	-3.922850	-0.177912	308.472000	-27.968200	0.215960	0.000000	-0.979139	23.490000	-5.017940	5.419770
6.365000	0.257226	333.326000	27.146000	0.187201	0.000000	-1.445610	-20.127300	3.072320	-4.045610	-0.164003	310.591000	-28.363300	0.215675	0.000000	-0.979229	23.679000	-5.029720	5.369580
6.370000	0.493636	332.299000	26.990300	0.187197	0.000000	-1.445290	-20.169700	3.084770	-4.034260	-0.126544	312.854000	-28.583300	0.216189	0.000000	-0.978253	23.545400	-4.964000	5.561510
6.375000	0.814945	333.669000	26.434500	0.187452	0.000000	-1.444870	-20.389400	3.025410	-3.977500	-0.118414	311.055000	-28.515100	0.215962	0.000000	-0.979140	23.685700	-4.912180	5.458070
6.380000	0.747857	333.909000	26.452800	0.187591	0.000000	-1.445250	-20.279600	3.028510	-3.933070	-0.070227	310.022000	-28.720500	0.216373	0.000000	-0.978831	23.510400	-4.930360	5.576810
6.385000	0.570847	333.653000	26.369000	0.187081	0.000000	-1.444910	-20.379900	3.060260	-4.098420	-0.006581	309.070000	-27.889500	0.216922	0.000000	-0.979583	23.669500	-4.896750	5.714700
6.390000	0.839727	333.966000	26.056300	0.187368	0.000000	-1.445280	-20.272900	2.972190	-4.016270	-0.401757	307.409000	-27.405800	0.216949	0.000000	-0.979924	23.654300	-4.884910	5.689960
6.395000	0.680504	331.227000	25.989400	0.187226	0.000000	-1.445330	-20.088600	2.932850	-4.030260	-0.825463	307.090000	-26.285100	0.217624	0.000000	-0.980630	23.853600	-4.808590	5.868960
6.400000	-0.157111	330.655000	25.666000	0.187252	0.000000	-1.444890	-20.208500	2.860980	-4.017850	-1.377660	307.145000	-25.472700	0.217448	0.000000	-0.979976	23.666800	-4.767310	5.799960
6.405000	-0.330255	330.436000	25.408200	0.186880	0.000000	-1.445040	-20.146400	2.760020	-4.147110	-1.364970	306.342000	-25.036500	0.217520	0.000000	-0.980650	23.810800	-4.703060	5.796140
